<mxfile host="app.diagrams.net" modified="2023-05-29T16:04:17.569Z" agent="Mozilla/5.0 (Macintosh; Intel Mac OS X 10_15_7) AppleWebKit/537.36 (KHTML, like Gecko) Chrome/113.0.0.0 Safari/537.36" version="21.3.5" etag="c0fxjJ4ODpKdXpKEM69u" type="github">
  <diagram name="Page-1" id="2BZ4j--aO4wJXdUek2Ne">
    <mxGraphModel>
      <root>
        <mxCell id="0" />
        <mxCell id="1" parent="0" />
      </root>
    </mxGraphModel>
  </diagram>
</mxfile>
